<mxfile host="Electron" agent="Mozilla/5.0 (X11; Linux x86_64) AppleWebKit/537.36 (KHTML, like Gecko) draw.io/24.7.5 Chrome/126.0.6478.183 Electron/31.3.0 Safari/537.36" version="24.7.5">
  <diagram name="Page-1" id="T--bDFZihbW74El8pYaS">
    <mxGraphModel dx="4563" dy="1999" grid="1" gridSize="10" guides="1" tooltips="1" connect="1" arrows="1" fold="1" page="0" pageScale="1" pageWidth="850" pageHeight="1100" math="0" shadow="1">
      <root>
        <mxCell id="0" />
        <mxCell id="1" parent="0" />
        <mxCell id="7mthSx3CE8CJNTc02Vdj-50" value="Decrição" style="ellipse;whiteSpace=wrap;html=1;align=center;shadow=1;strokeWidth=3;fontSize=14;" parent="1" vertex="1">
          <mxGeometry x="-410" y="-160" width="100" height="40" as="geometry" />
        </mxCell>
        <mxCell id="7mthSx3CE8CJNTc02Vdj-47" style="edgeStyle=orthogonalEdgeStyle;rounded=1;orthogonalLoop=1;jettySize=auto;html=1;entryX=1;entryY=0.5;entryDx=0;entryDy=0;endArrow=none;endFill=0;curved=0;shadow=1;strokeWidth=3;fontSize=14;" parent="1" source="7mthSx3CE8CJNTc02Vdj-48" target="7mthSx3CE8CJNTc02Vdj-50" edge="1">
          <mxGeometry relative="1" as="geometry" />
        </mxCell>
        <mxCell id="7mthSx3CE8CJNTc02Vdj-65" value="N" style="edgeStyle=orthogonalEdgeStyle;rounded=1;orthogonalLoop=1;jettySize=auto;html=1;entryX=1;entryY=0.5;entryDx=0;entryDy=0;endArrow=none;endFill=0;strokeWidth=3;fontSize=18;shadow=1;curved=0;" parent="1" source="7mthSx3CE8CJNTc02Vdj-48" target="7mthSx3CE8CJNTc02Vdj-63" edge="1">
          <mxGeometry relative="1" as="geometry" />
        </mxCell>
        <mxCell id="7mthSx3CE8CJNTc02Vdj-48" value="Prédio" style="rounded=1;arcSize=10;whiteSpace=wrap;html=1;align=center;shadow=1;strokeWidth=3;fontSize=14;" parent="1" vertex="1">
          <mxGeometry x="-340" y="-40" width="100" height="40" as="geometry" />
        </mxCell>
        <mxCell id="7mthSx3CE8CJNTc02Vdj-46" style="edgeStyle=orthogonalEdgeStyle;rounded=1;orthogonalLoop=1;jettySize=auto;html=1;entryX=1;entryY=0.5;entryDx=0;entryDy=0;endArrow=none;endFill=0;curved=0;shadow=1;strokeWidth=3;fontSize=14;" parent="1" source="7mthSx3CE8CJNTc02Vdj-48" target="7mthSx3CE8CJNTc02Vdj-49" edge="1">
          <mxGeometry relative="1" as="geometry" />
        </mxCell>
        <mxCell id="7mthSx3CE8CJNTc02Vdj-49" value="Nome" style="ellipse;whiteSpace=wrap;html=1;align=center;shadow=1;strokeWidth=3;fontSize=14;" parent="1" vertex="1">
          <mxGeometry x="-410" y="-120" width="100" height="40" as="geometry" />
        </mxCell>
        <mxCell id="7mthSx3CE8CJNTc02Vdj-27" style="edgeStyle=orthogonalEdgeStyle;rounded=1;orthogonalLoop=1;jettySize=auto;html=1;entryX=1;entryY=0.5;entryDx=0;entryDy=0;endArrow=none;endFill=0;curved=0;shadow=1;strokeWidth=3;fontSize=14;" parent="1" source="7mthSx3CE8CJNTc02Vdj-3" target="7mthSx3CE8CJNTc02Vdj-18" edge="1">
          <mxGeometry relative="1" as="geometry" />
        </mxCell>
        <mxCell id="7mthSx3CE8CJNTc02Vdj-28" style="edgeStyle=orthogonalEdgeStyle;rounded=1;orthogonalLoop=1;jettySize=auto;html=1;entryX=1;entryY=0.5;entryDx=0;entryDy=0;endArrow=none;endFill=0;curved=0;shadow=1;strokeWidth=3;fontSize=14;" parent="1" source="7mthSx3CE8CJNTc02Vdj-3" target="7mthSx3CE8CJNTc02Vdj-19" edge="1">
          <mxGeometry relative="1" as="geometry" />
        </mxCell>
        <mxCell id="7mthSx3CE8CJNTc02Vdj-85" value="1" style="edgeStyle=orthogonalEdgeStyle;rounded=1;orthogonalLoop=1;jettySize=auto;html=1;entryX=0;entryY=0.5;entryDx=0;entryDy=0;strokeWidth=3;endArrow=none;endFill=0;fontSize=18;shadow=1;curved=0;" parent="1" source="7mthSx3CE8CJNTc02Vdj-3" target="7mthSx3CE8CJNTc02Vdj-84" edge="1">
          <mxGeometry relative="1" as="geometry">
            <Array as="points">
              <mxPoint x="-500" y="300" />
              <mxPoint x="-500" y="80" />
            </Array>
          </mxGeometry>
        </mxCell>
        <mxCell id="7mthSx3CE8CJNTc02Vdj-95" value="1" style="edgeStyle=orthogonalEdgeStyle;rounded=1;orthogonalLoop=1;jettySize=auto;html=1;entryX=0;entryY=0.5;entryDx=0;entryDy=0;strokeWidth=3;endArrow=none;endFill=0;exitX=0.5;exitY=1;exitDx=0;exitDy=0;fontSize=18;shadow=1;curved=0;" parent="1" source="7mthSx3CE8CJNTc02Vdj-3" target="7mthSx3CE8CJNTc02Vdj-104" edge="1">
          <mxGeometry x="0.389" relative="1" as="geometry">
            <mxPoint x="-1" as="offset" />
          </mxGeometry>
        </mxCell>
        <mxCell id="joE96Z92P-JBZioCppuL-10" style="edgeStyle=orthogonalEdgeStyle;rounded=1;orthogonalLoop=1;jettySize=auto;html=1;entryX=1;entryY=0.5;entryDx=0;entryDy=0;endArrow=none;endFill=0;strokeWidth=3;shadow=1;curved=0;" parent="1" source="KZwFMcEnj0AJ6YZWbM6m-1" target="joE96Z92P-JBZioCppuL-9" edge="1">
          <mxGeometry relative="1" as="geometry" />
        </mxCell>
        <mxCell id="7mthSx3CE8CJNTc02Vdj-3" value="Departamento" style="rounded=1;arcSize=10;whiteSpace=wrap;html=1;align=center;shadow=1;strokeWidth=3;container=0;fontSize=14;" parent="1" vertex="1">
          <mxGeometry x="-740" y="280" width="100" height="40" as="geometry" />
        </mxCell>
        <mxCell id="7mthSx3CE8CJNTc02Vdj-18" value="Nome" style="ellipse;whiteSpace=wrap;html=1;align=center;shadow=1;strokeWidth=3;container=0;fontSize=14;" parent="1" vertex="1">
          <mxGeometry x="-930" y="360" width="100" height="40" as="geometry" />
        </mxCell>
        <mxCell id="7mthSx3CE8CJNTc02Vdj-19" value="Decrição" style="ellipse;whiteSpace=wrap;html=1;align=center;shadow=1;strokeWidth=3;container=0;fontSize=14;" parent="1" vertex="1">
          <mxGeometry x="-930" y="400" width="100" height="40" as="geometry" />
        </mxCell>
        <mxCell id="SAccm9rSHpC1ZqSbtUUq-11" style="edgeStyle=orthogonalEdgeStyle;rounded=1;orthogonalLoop=1;jettySize=auto;html=1;entryX=0.5;entryY=1;entryDx=0;entryDy=0;exitX=0.5;exitY=0;exitDx=0;exitDy=0;endArrow=none;endFill=0;curved=0;strokeWidth=3;shadow=1;" parent="1" source="7mthSx3CE8CJNTc02Vdj-5" target="SAccm9rSHpC1ZqSbtUUq-8" edge="1">
          <mxGeometry relative="1" as="geometry" />
        </mxCell>
        <mxCell id="SAccm9rSHpC1ZqSbtUUq-12" style="edgeStyle=orthogonalEdgeStyle;rounded=1;orthogonalLoop=1;jettySize=auto;html=1;entryX=0.5;entryY=1;entryDx=0;entryDy=0;exitX=0.5;exitY=0;exitDx=0;exitDy=0;endArrow=none;endFill=0;curved=0;strokeWidth=3;shadow=1;" parent="1" source="7mthSx3CE8CJNTc02Vdj-5" target="SAccm9rSHpC1ZqSbtUUq-7" edge="1">
          <mxGeometry relative="1" as="geometry" />
        </mxCell>
        <mxCell id="SAccm9rSHpC1ZqSbtUUq-13" style="edgeStyle=orthogonalEdgeStyle;rounded=1;orthogonalLoop=1;jettySize=auto;html=1;entryX=0.5;entryY=1;entryDx=0;entryDy=0;exitX=0.5;exitY=0;exitDx=0;exitDy=0;endArrow=none;endFill=0;curved=0;strokeWidth=3;shadow=1;" parent="1" source="7mthSx3CE8CJNTc02Vdj-5" target="SAccm9rSHpC1ZqSbtUUq-9" edge="1">
          <mxGeometry relative="1" as="geometry" />
        </mxCell>
        <mxCell id="SAccm9rSHpC1ZqSbtUUq-14" style="edgeStyle=orthogonalEdgeStyle;rounded=1;orthogonalLoop=1;jettySize=auto;html=1;entryX=0.5;entryY=1;entryDx=0;entryDy=0;endArrow=none;endFill=0;curved=0;strokeWidth=3;shadow=1;" parent="1" source="7mthSx3CE8CJNTc02Vdj-5" target="SAccm9rSHpC1ZqSbtUUq-1" edge="1">
          <mxGeometry relative="1" as="geometry" />
        </mxCell>
        <mxCell id="SAccm9rSHpC1ZqSbtUUq-15" style="edgeStyle=orthogonalEdgeStyle;rounded=1;orthogonalLoop=1;jettySize=auto;html=1;entryX=0.5;entryY=1;entryDx=0;entryDy=0;endArrow=none;endFill=0;curved=0;strokeWidth=3;shadow=1;" parent="1" source="7mthSx3CE8CJNTc02Vdj-5" target="SAccm9rSHpC1ZqSbtUUq-2" edge="1">
          <mxGeometry relative="1" as="geometry" />
        </mxCell>
        <mxCell id="SAccm9rSHpC1ZqSbtUUq-16" style="edgeStyle=orthogonalEdgeStyle;rounded=1;orthogonalLoop=1;jettySize=auto;html=1;entryX=0.5;entryY=1;entryDx=0;entryDy=0;endArrow=none;endFill=0;curved=0;strokeWidth=3;shadow=1;" parent="1" source="7mthSx3CE8CJNTc02Vdj-5" target="SAccm9rSHpC1ZqSbtUUq-3" edge="1">
          <mxGeometry relative="1" as="geometry" />
        </mxCell>
        <mxCell id="SAccm9rSHpC1ZqSbtUUq-17" style="edgeStyle=orthogonalEdgeStyle;rounded=1;orthogonalLoop=1;jettySize=auto;html=1;entryX=0.5;entryY=1;entryDx=0;entryDy=0;exitX=0.5;exitY=0;exitDx=0;exitDy=0;endArrow=none;endFill=0;curved=0;strokeWidth=3;shadow=1;" parent="1" source="7mthSx3CE8CJNTc02Vdj-5" target="SAccm9rSHpC1ZqSbtUUq-4" edge="1">
          <mxGeometry relative="1" as="geometry">
            <mxPoint x="120" y="-350" as="sourcePoint" />
            <Array as="points">
              <mxPoint x="120" y="-400" />
              <mxPoint x="320" y="-400" />
            </Array>
          </mxGeometry>
        </mxCell>
        <mxCell id="SAccm9rSHpC1ZqSbtUUq-18" style="edgeStyle=orthogonalEdgeStyle;rounded=1;orthogonalLoop=1;jettySize=auto;html=1;entryX=0.5;entryY=1;entryDx=0;entryDy=0;exitX=0.5;exitY=0;exitDx=0;exitDy=0;endArrow=none;endFill=0;curved=0;strokeWidth=3;shadow=1;" parent="1" source="7mthSx3CE8CJNTc02Vdj-5" target="SAccm9rSHpC1ZqSbtUUq-5" edge="1">
          <mxGeometry relative="1" as="geometry" />
        </mxCell>
        <mxCell id="SAccm9rSHpC1ZqSbtUUq-19" style="edgeStyle=orthogonalEdgeStyle;rounded=1;orthogonalLoop=1;jettySize=auto;html=1;entryX=0.5;entryY=1;entryDx=0;entryDy=0;exitX=0.5;exitY=0;exitDx=0;exitDy=0;endArrow=none;endFill=0;curved=0;strokeWidth=3;shadow=1;" parent="1" source="7mthSx3CE8CJNTc02Vdj-5" target="SAccm9rSHpC1ZqSbtUUq-6" edge="1">
          <mxGeometry relative="1" as="geometry">
            <Array as="points">
              <mxPoint x="120" y="-400" />
              <mxPoint x="520" y="-400" />
            </Array>
          </mxGeometry>
        </mxCell>
        <mxCell id="KZwFMcEnj0AJ6YZWbM6m-4" style="edgeStyle=orthogonalEdgeStyle;rounded=1;orthogonalLoop=1;jettySize=auto;html=1;entryX=0.5;entryY=1;entryDx=0;entryDy=0;endArrow=none;endFill=0;strokeWidth=3;shadow=1;curved=0;" edge="1" parent="1" source="7mthSx3CE8CJNTc02Vdj-5" target="joE96Z92P-JBZioCppuL-5">
          <mxGeometry relative="1" as="geometry">
            <Array as="points">
              <mxPoint x="120" y="-400" />
              <mxPoint x="620" y="-400" />
            </Array>
          </mxGeometry>
        </mxCell>
        <mxCell id="7mthSx3CE8CJNTc02Vdj-5" value="Bem" style="rounded=1;arcSize=10;whiteSpace=wrap;html=1;align=center;shadow=1;strokeWidth=3;container=0;fontSize=14;" parent="1" vertex="1">
          <mxGeometry x="70" y="-340" width="100" height="40" as="geometry" />
        </mxCell>
        <mxCell id="7mthSx3CE8CJNTc02Vdj-34" style="edgeStyle=orthogonalEdgeStyle;rounded=1;orthogonalLoop=1;jettySize=auto;html=1;endArrow=none;endFill=0;curved=0;shadow=1;strokeWidth=3;fontSize=14;entryX=0.5;entryY=1;entryDx=0;entryDy=0;" parent="1" source="7mthSx3CE8CJNTc02Vdj-26" target="7mthSx3CE8CJNTc02Vdj-104" edge="1">
          <mxGeometry relative="1" as="geometry" />
        </mxCell>
        <mxCell id="7mthSx3CE8CJNTc02Vdj-26" value="&lt;div style=&quot;font-size: 14px;&quot;&gt;Data&lt;/div&gt;" style="ellipse;whiteSpace=wrap;html=1;align=center;shadow=1;strokeWidth=3;container=0;fontSize=14;" parent="1" vertex="1">
          <mxGeometry x="-130" y="680" width="100" height="40" as="geometry" />
        </mxCell>
        <mxCell id="7mthSx3CE8CJNTc02Vdj-29" style="edgeStyle=orthogonalEdgeStyle;rounded=1;orthogonalLoop=1;jettySize=auto;html=1;entryX=0;entryY=0.5;entryDx=0;entryDy=0;endArrow=none;endFill=0;curved=0;shadow=1;strokeWidth=3;fontSize=14;" parent="1" source="7mthSx3CE8CJNTc02Vdj-4" target="7mthSx3CE8CJNTc02Vdj-22" edge="1">
          <mxGeometry relative="1" as="geometry" />
        </mxCell>
        <mxCell id="7mthSx3CE8CJNTc02Vdj-30" style="edgeStyle=orthogonalEdgeStyle;rounded=1;orthogonalLoop=1;jettySize=auto;html=1;entryX=0;entryY=0.5;entryDx=0;entryDy=0;endArrow=none;endFill=0;curved=0;shadow=1;strokeWidth=3;fontSize=14;" parent="1" source="7mthSx3CE8CJNTc02Vdj-4" target="7mthSx3CE8CJNTc02Vdj-23" edge="1">
          <mxGeometry relative="1" as="geometry" />
        </mxCell>
        <mxCell id="7mthSx3CE8CJNTc02Vdj-31" style="edgeStyle=orthogonalEdgeStyle;rounded=1;orthogonalLoop=1;jettySize=auto;html=1;entryX=0;entryY=0.5;entryDx=0;entryDy=0;endArrow=none;endFill=0;curved=0;shadow=1;strokeWidth=3;fontSize=14;" parent="1" source="7mthSx3CE8CJNTc02Vdj-4" target="7mthSx3CE8CJNTc02Vdj-24" edge="1">
          <mxGeometry relative="1" as="geometry" />
        </mxCell>
        <mxCell id="7mthSx3CE8CJNTc02Vdj-32" style="edgeStyle=orthogonalEdgeStyle;rounded=1;orthogonalLoop=1;jettySize=auto;html=1;entryX=0;entryY=0.5;entryDx=0;entryDy=0;endArrow=none;endFill=0;curved=0;shadow=1;strokeWidth=3;fontSize=14;" parent="1" source="7mthSx3CE8CJNTc02Vdj-4" target="7mthSx3CE8CJNTc02Vdj-25" edge="1">
          <mxGeometry relative="1" as="geometry" />
        </mxCell>
        <mxCell id="7mthSx3CE8CJNTc02Vdj-102" value="N" style="edgeStyle=orthogonalEdgeStyle;rounded=1;orthogonalLoop=1;jettySize=auto;html=1;entryX=0.5;entryY=0;entryDx=0;entryDy=0;endArrow=none;endFill=0;strokeWidth=3;fontSize=18;shadow=1;curved=0;" parent="1" source="7mthSx3CE8CJNTc02Vdj-4" target="7mthSx3CE8CJNTc02Vdj-101" edge="1">
          <mxGeometry x="-0.3342" relative="1" as="geometry">
            <mxPoint x="-30" y="420" as="targetPoint" />
            <Array as="points">
              <mxPoint x="-30" y="420" />
              <mxPoint x="-30" y="420" />
            </Array>
            <mxPoint as="offset" />
          </mxGeometry>
        </mxCell>
        <mxCell id="7mthSx3CE8CJNTc02Vdj-4" value="&lt;div style=&quot;font-size: 14px;&quot;&gt;Funcionário&lt;/div&gt;" style="rounded=1;arcSize=10;whiteSpace=wrap;html=1;align=center;shadow=1;strokeWidth=3;container=0;fontSize=14;" parent="1" vertex="1">
          <mxGeometry x="-80" y="280" width="100" height="40" as="geometry" />
        </mxCell>
        <mxCell id="7mthSx3CE8CJNTc02Vdj-22" value="Nome" style="ellipse;whiteSpace=wrap;html=1;align=center;shadow=1;strokeWidth=3;container=0;fontSize=14;" parent="1" vertex="1">
          <mxGeometry x="130" y="220" width="100" height="40" as="geometry" />
        </mxCell>
        <mxCell id="7mthSx3CE8CJNTc02Vdj-23" value="Email" style="ellipse;whiteSpace=wrap;html=1;align=center;shadow=1;strokeWidth=3;container=0;fontSize=14;" parent="1" vertex="1">
          <mxGeometry x="130" y="260" width="100" height="40" as="geometry" />
        </mxCell>
        <mxCell id="7mthSx3CE8CJNTc02Vdj-24" value="Cargo" style="ellipse;whiteSpace=wrap;html=1;align=center;shadow=1;strokeWidth=3;container=0;fontSize=14;" parent="1" vertex="1">
          <mxGeometry x="130" y="300" width="100" height="40" as="geometry" />
        </mxCell>
        <mxCell id="7mthSx3CE8CJNTc02Vdj-25" value="Funcao" style="ellipse;whiteSpace=wrap;html=1;align=center;shadow=1;strokeWidth=3;container=0;fontSize=14;" parent="1" vertex="1">
          <mxGeometry x="130" y="340" width="100" height="40" as="geometry" />
        </mxCell>
        <mxCell id="7mthSx3CE8CJNTc02Vdj-92" value="1" style="edgeStyle=orthogonalEdgeStyle;rounded=1;orthogonalLoop=1;jettySize=auto;html=1;entryX=0.5;entryY=1;entryDx=0;entryDy=0;strokeWidth=3;endArrow=none;endFill=0;fontSize=18;shadow=1;curved=0;" parent="1" source="7mthSx3CE8CJNTc02Vdj-2" target="7mthSx3CE8CJNTc02Vdj-91" edge="1">
          <mxGeometry relative="1" as="geometry" />
        </mxCell>
        <mxCell id="7mthSx3CE8CJNTc02Vdj-2" value="Salas" style="rounded=1;arcSize=10;whiteSpace=wrap;html=1;align=center;shadow=1;strokeWidth=3;container=0;fontSize=14;" parent="1" vertex="1">
          <mxGeometry x="70" y="-40" width="100" height="40" as="geometry" />
        </mxCell>
        <mxCell id="7mthSx3CE8CJNTc02Vdj-14" style="edgeStyle=orthogonalEdgeStyle;rounded=1;orthogonalLoop=1;jettySize=auto;html=1;curved=0;endArrow=none;endFill=0;shadow=1;strokeWidth=3;fontSize=14;" parent="1" source="7mthSx3CE8CJNTc02Vdj-11" target="7mthSx3CE8CJNTc02Vdj-2" edge="1">
          <mxGeometry relative="1" as="geometry" />
        </mxCell>
        <mxCell id="7mthSx3CE8CJNTc02Vdj-11" value="&lt;div style=&quot;font-size: 14px;&quot;&gt;Nome&lt;/div&gt;" style="ellipse;whiteSpace=wrap;html=1;align=center;shadow=1;strokeWidth=3;container=0;fontSize=14;" parent="1" vertex="1">
          <mxGeometry x="230" y="-80" width="100" height="40" as="geometry" />
        </mxCell>
        <mxCell id="7mthSx3CE8CJNTc02Vdj-15" style="edgeStyle=orthogonalEdgeStyle;rounded=1;orthogonalLoop=1;jettySize=auto;html=1;curved=0;endArrow=none;endFill=0;shadow=1;strokeWidth=3;entryX=1;entryY=0.5;entryDx=0;entryDy=0;fontSize=14;" parent="1" source="7mthSx3CE8CJNTc02Vdj-12" target="7mthSx3CE8CJNTc02Vdj-2" edge="1">
          <mxGeometry relative="1" as="geometry">
            <mxPoint x="130" y="80" as="targetPoint" />
          </mxGeometry>
        </mxCell>
        <mxCell id="7mthSx3CE8CJNTc02Vdj-12" value="Número" style="ellipse;whiteSpace=wrap;html=1;align=center;shadow=1;strokeWidth=3;container=0;fontSize=14;" parent="1" vertex="1">
          <mxGeometry x="230" y="-40" width="100" height="40" as="geometry" />
        </mxCell>
        <mxCell id="7mthSx3CE8CJNTc02Vdj-16" style="edgeStyle=orthogonalEdgeStyle;rounded=1;orthogonalLoop=1;jettySize=auto;html=1;entryX=1;entryY=0.5;entryDx=0;entryDy=0;curved=0;endArrow=none;endFill=0;shadow=1;strokeWidth=3;fontSize=14;" parent="1" source="7mthSx3CE8CJNTc02Vdj-13" target="7mthSx3CE8CJNTc02Vdj-2" edge="1">
          <mxGeometry relative="1" as="geometry" />
        </mxCell>
        <mxCell id="7mthSx3CE8CJNTc02Vdj-13" value="Descrição" style="ellipse;whiteSpace=wrap;html=1;align=center;shadow=1;strokeWidth=3;container=0;fontSize=14;" parent="1" vertex="1">
          <mxGeometry x="230" width="100" height="40" as="geometry" />
        </mxCell>
        <mxCell id="7mthSx3CE8CJNTc02Vdj-63" value="Possui" style="shape=rhombus;perimeter=rhombusPerimeter;whiteSpace=wrap;html=1;align=center;shadow=1;strokeWidth=3;fontSize=14;" parent="1" vertex="1">
          <mxGeometry x="-560" y="-50" width="120" height="60" as="geometry" />
        </mxCell>
        <mxCell id="7mthSx3CE8CJNTc02Vdj-64" value="&lt;div style=&quot;font-size: 18px;&quot;&gt;1&lt;/div&gt;" style="edgeStyle=orthogonalEdgeStyle;rounded=1;orthogonalLoop=1;jettySize=auto;html=1;entryX=0;entryY=0.5;entryDx=0;entryDy=0;endArrow=none;endFill=0;strokeWidth=3;fontSize=18;shadow=1;curved=0;" parent="1" source="7mthSx3CE8CJNTc02Vdj-1" target="7mthSx3CE8CJNTc02Vdj-63" edge="1">
          <mxGeometry relative="1" as="geometry" />
        </mxCell>
        <mxCell id="7mthSx3CE8CJNTc02Vdj-69" value="N" style="edgeStyle=orthogonalEdgeStyle;rounded=1;orthogonalLoop=1;jettySize=auto;html=1;entryX=0.5;entryY=1;entryDx=0;entryDy=0;endArrow=none;endFill=0;strokeWidth=3;exitX=0.5;exitY=0;exitDx=0;exitDy=0;fontSize=18;shadow=1;curved=0;" parent="1" source="7mthSx3CE8CJNTc02Vdj-3" target="7mthSx3CE8CJNTc02Vdj-70" edge="1">
          <mxGeometry relative="1" as="geometry">
            <mxPoint x="-330" y="130" as="sourcePoint" />
          </mxGeometry>
        </mxCell>
        <mxCell id="7mthSx3CE8CJNTc02Vdj-70" value="Possui" style="shape=rhombus;perimeter=rhombusPerimeter;whiteSpace=wrap;html=1;align=center;shadow=1;strokeWidth=3;fontSize=14;" parent="1" vertex="1">
          <mxGeometry x="-750" y="110" width="120" height="60" as="geometry" />
        </mxCell>
        <mxCell id="7mthSx3CE8CJNTc02Vdj-71" value="&lt;div style=&quot;font-size: 18px;&quot;&gt;1&lt;/div&gt;" style="edgeStyle=orthogonalEdgeStyle;rounded=1;orthogonalLoop=1;jettySize=auto;html=1;endArrow=none;endFill=0;strokeWidth=3;exitX=0.5;exitY=1;exitDx=0;exitDy=0;entryX=0.5;entryY=0;entryDx=0;entryDy=0;fontSize=18;shadow=1;curved=0;" parent="1" source="7mthSx3CE8CJNTc02Vdj-1" target="7mthSx3CE8CJNTc02Vdj-70" edge="1">
          <mxGeometry relative="1" as="geometry">
            <mxPoint x="-720" y="130" as="sourcePoint" />
            <mxPoint x="-530" y="90" as="targetPoint" />
          </mxGeometry>
        </mxCell>
        <mxCell id="7mthSx3CE8CJNTc02Vdj-81" value="N" style="edgeStyle=orthogonalEdgeStyle;rounded=1;orthogonalLoop=1;jettySize=auto;html=1;entryX=1;entryY=0.5;entryDx=0;entryDy=0;endArrow=none;endFill=0;strokeWidth=3;exitX=0;exitY=0.5;exitDx=0;exitDy=0;fontSize=18;shadow=1;curved=0;" parent="1" source="7mthSx3CE8CJNTc02Vdj-2" target="7mthSx3CE8CJNTc02Vdj-82" edge="1">
          <mxGeometry relative="1" as="geometry">
            <mxPoint x="70" y="-90" as="sourcePoint" />
          </mxGeometry>
        </mxCell>
        <mxCell id="7mthSx3CE8CJNTc02Vdj-82" value="Possui" style="shape=rhombus;perimeter=rhombusPerimeter;whiteSpace=wrap;html=1;align=center;shadow=1;strokeWidth=3;fontSize=14;" parent="1" vertex="1">
          <mxGeometry x="-140" y="-50" width="120" height="60" as="geometry" />
        </mxCell>
        <mxCell id="7mthSx3CE8CJNTc02Vdj-83" value="&lt;div style=&quot;font-size: 18px;&quot;&gt;1&lt;/div&gt;" style="edgeStyle=orthogonalEdgeStyle;rounded=1;orthogonalLoop=1;jettySize=auto;html=1;entryX=0;entryY=0.5;entryDx=0;entryDy=0;endArrow=none;endFill=0;strokeWidth=3;exitX=1;exitY=0.5;exitDx=0;exitDy=0;fontSize=18;shadow=1;curved=0;" parent="1" source="7mthSx3CE8CJNTc02Vdj-48" target="7mthSx3CE8CJNTc02Vdj-82" edge="1">
          <mxGeometry relative="1" as="geometry">
            <mxPoint x="-230" y="-90" as="sourcePoint" />
          </mxGeometry>
        </mxCell>
        <mxCell id="7mthSx3CE8CJNTc02Vdj-1" value="&lt;div style=&quot;font-size: 14px;&quot;&gt;Empresa&lt;/div&gt;" style="rounded=1;arcSize=10;whiteSpace=wrap;html=1;align=center;shadow=1;strokeWidth=3;fontSize=14;" parent="1" vertex="1">
          <mxGeometry x="-740" y="-40" width="100" height="40" as="geometry" />
        </mxCell>
        <mxCell id="7mthSx3CE8CJNTc02Vdj-10" style="edgeStyle=orthogonalEdgeStyle;rounded=1;orthogonalLoop=1;jettySize=auto;html=1;entryX=0.5;entryY=0;entryDx=0;entryDy=0;curved=0;endArrow=none;endFill=0;strokeColor=default;shadow=1;strokeWidth=3;fontSize=14;" parent="1" source="7mthSx3CE8CJNTc02Vdj-7" target="7mthSx3CE8CJNTc02Vdj-1" edge="1">
          <mxGeometry relative="1" as="geometry" />
        </mxCell>
        <mxCell id="7mthSx3CE8CJNTc02Vdj-7" value="&lt;div style=&quot;font-size: 14px;&quot;&gt;Descrição&lt;/div&gt;" style="ellipse;whiteSpace=wrap;html=1;align=center;shadow=1;strokeWidth=3;fontSize=14;" parent="1" vertex="1">
          <mxGeometry x="-860" y="-120" width="100" height="40" as="geometry" />
        </mxCell>
        <mxCell id="7mthSx3CE8CJNTc02Vdj-9" style="edgeStyle=orthogonalEdgeStyle;rounded=1;orthogonalLoop=1;jettySize=auto;html=1;exitX=1;exitY=0.5;exitDx=0;exitDy=0;endArrow=none;endFill=0;curved=0;shadow=1;strokeWidth=3;fontSize=14;" parent="1" source="7mthSx3CE8CJNTc02Vdj-8" edge="1">
          <mxGeometry relative="1" as="geometry">
            <mxPoint x="-690" y="-50" as="targetPoint" />
          </mxGeometry>
        </mxCell>
        <mxCell id="7mthSx3CE8CJNTc02Vdj-8" value="Nome" style="ellipse;whiteSpace=wrap;html=1;align=center;shadow=1;strokeWidth=3;fontSize=14;" parent="1" vertex="1">
          <mxGeometry x="-860" y="-160" width="100" height="40" as="geometry" />
        </mxCell>
        <mxCell id="7mthSx3CE8CJNTc02Vdj-86" value="N" style="edgeStyle=orthogonalEdgeStyle;rounded=1;orthogonalLoop=1;jettySize=auto;html=1;strokeWidth=3;endArrow=none;endFill=0;fontSize=18;shadow=1;curved=0;" parent="1" source="7mthSx3CE8CJNTc02Vdj-84" target="7mthSx3CE8CJNTc02Vdj-2" edge="1">
          <mxGeometry relative="1" as="geometry" />
        </mxCell>
        <mxCell id="7mthSx3CE8CJNTc02Vdj-84" value="Respondável" style="shape=rhombus;perimeter=rhombusPerimeter;whiteSpace=wrap;html=1;align=center;strokeWidth=3;fontSize=14;shadow=1;" parent="1" vertex="1">
          <mxGeometry x="-360" y="50" width="120" height="60" as="geometry" />
        </mxCell>
        <mxCell id="7mthSx3CE8CJNTc02Vdj-88" value="N" style="edgeStyle=orthogonalEdgeStyle;rounded=1;orthogonalLoop=1;jettySize=auto;html=1;entryX=1;entryY=0.5;entryDx=0;entryDy=0;endArrow=none;endFill=0;strokeWidth=3;exitX=0;exitY=0.5;exitDx=0;exitDy=0;fontSize=18;shadow=1;curved=0;" parent="1" source="7mthSx3CE8CJNTc02Vdj-4" target="7mthSx3CE8CJNTc02Vdj-89" edge="1">
          <mxGeometry relative="1" as="geometry">
            <mxPoint x="-70" y="320" as="sourcePoint" />
          </mxGeometry>
        </mxCell>
        <mxCell id="7mthSx3CE8CJNTc02Vdj-89" value="Possui" style="shape=rhombus;perimeter=rhombusPerimeter;whiteSpace=wrap;html=1;align=center;shadow=1;strokeWidth=3;fontSize=14;" parent="1" vertex="1">
          <mxGeometry x="-360" y="270" width="120" height="60" as="geometry" />
        </mxCell>
        <mxCell id="7mthSx3CE8CJNTc02Vdj-90" value="&lt;div style=&quot;font-size: 18px;&quot;&gt;1&lt;/div&gt;" style="edgeStyle=orthogonalEdgeStyle;rounded=1;orthogonalLoop=1;jettySize=auto;html=1;entryX=0;entryY=0.5;entryDx=0;entryDy=0;endArrow=none;endFill=0;strokeWidth=3;exitX=1;exitY=0.5;exitDx=0;exitDy=0;fontSize=18;shadow=1;curved=0;" parent="1" source="7mthSx3CE8CJNTc02Vdj-3" target="7mthSx3CE8CJNTc02Vdj-89" edge="1">
          <mxGeometry x="0.4286" relative="1" as="geometry">
            <mxPoint x="-640" y="390" as="sourcePoint" />
            <mxPoint as="offset" />
          </mxGeometry>
        </mxCell>
        <mxCell id="7mthSx3CE8CJNTc02Vdj-93" value="N" style="edgeStyle=orthogonalEdgeStyle;rounded=1;orthogonalLoop=1;jettySize=auto;html=1;exitX=0.5;exitY=0;exitDx=0;exitDy=0;entryX=0.5;entryY=1;entryDx=0;entryDy=0;strokeWidth=3;endArrow=none;endFill=0;fontSize=18;shadow=1;curved=0;" parent="1" source="7mthSx3CE8CJNTc02Vdj-91" target="7mthSx3CE8CJNTc02Vdj-5" edge="1">
          <mxGeometry relative="1" as="geometry" />
        </mxCell>
        <mxCell id="7mthSx3CE8CJNTc02Vdj-91" value="&lt;div style=&quot;font-size: 14px;&quot;&gt;Aloca-se&lt;/div&gt;" style="shape=rhombus;perimeter=rhombusPerimeter;whiteSpace=wrap;html=1;align=center;strokeWidth=3;fontSize=14;shadow=1;" parent="1" vertex="1">
          <mxGeometry x="60" y="-210" width="120" height="60" as="geometry" />
        </mxCell>
        <mxCell id="7mthSx3CE8CJNTc02Vdj-96" value="N" style="edgeStyle=orthogonalEdgeStyle;rounded=1;orthogonalLoop=1;jettySize=auto;html=1;strokeWidth=3;endArrow=none;endFill=0;exitX=1;exitY=0.5;exitDx=0;exitDy=0;fontSize=18;shadow=1;curved=0;entryX=1;entryY=0.5;entryDx=0;entryDy=0;flowAnimation=0;" parent="1" source="7mthSx3CE8CJNTc02Vdj-104" target="7mthSx3CE8CJNTc02Vdj-5" edge="1">
          <mxGeometry relative="1" as="geometry">
            <mxPoint x="400" y="-320" as="targetPoint" />
            <Array as="points">
              <mxPoint x="390" y="580" />
              <mxPoint x="390" y="-320" />
            </Array>
          </mxGeometry>
        </mxCell>
        <mxCell id="7mthSx3CE8CJNTc02Vdj-103" value="N" style="edgeStyle=orthogonalEdgeStyle;rounded=1;orthogonalLoop=1;jettySize=auto;html=1;exitX=0.5;exitY=1;exitDx=0;exitDy=0;endArrow=none;endFill=0;strokeWidth=3;entryX=0.5;entryY=0;entryDx=0;entryDy=0;fontSize=18;shadow=1;curved=0;" parent="1" source="7mthSx3CE8CJNTc02Vdj-101" target="7mthSx3CE8CJNTc02Vdj-104" edge="1">
          <mxGeometry relative="1" as="geometry">
            <mxPoint x="-50" y="540" as="targetPoint" />
            <Array as="points">
              <mxPoint x="-30" y="510" />
              <mxPoint x="-30" y="510" />
            </Array>
          </mxGeometry>
        </mxCell>
        <mxCell id="7mthSx3CE8CJNTc02Vdj-101" value="Participa" style="shape=rhombus;perimeter=rhombusPerimeter;whiteSpace=wrap;html=1;align=center;strokeWidth=3;fontSize=14;shadow=1;" parent="1" vertex="1">
          <mxGeometry x="-90" y="400" width="120" height="60" as="geometry" />
        </mxCell>
        <mxCell id="joE96Z92P-JBZioCppuL-3" style="edgeStyle=orthogonalEdgeStyle;rounded=0;orthogonalLoop=1;jettySize=auto;html=1;entryX=0.5;entryY=0;entryDx=0;entryDy=0;strokeWidth=3;shadow=1;" parent="1" source="7mthSx3CE8CJNTc02Vdj-104" target="joE96Z92P-JBZioCppuL-1" edge="1">
          <mxGeometry relative="1" as="geometry" />
        </mxCell>
        <mxCell id="7mthSx3CE8CJNTc02Vdj-104" value="Confere" style="shape=associativeEntity;whiteSpace=wrap;html=1;align=center;strokeWidth=3;fontSize=14;shadow=1;" parent="1" vertex="1">
          <mxGeometry x="-100" y="550" width="140" height="60" as="geometry" />
        </mxCell>
        <mxCell id="UPPQqZE5-UTuApqP6BNS-2" style="edgeStyle=orthogonalEdgeStyle;rounded=1;orthogonalLoop=1;jettySize=auto;html=1;entryX=0.5;entryY=0;entryDx=0;entryDy=0;shadow=1;strokeWidth=3;curved=0;endArrow=none;endFill=0;" parent="1" source="UPPQqZE5-UTuApqP6BNS-1" target="7mthSx3CE8CJNTc02Vdj-1" edge="1">
          <mxGeometry relative="1" as="geometry" />
        </mxCell>
        <mxCell id="UPPQqZE5-UTuApqP6BNS-1" value="Localização" style="ellipse;whiteSpace=wrap;html=1;align=center;shadow=1;strokeWidth=3;fontSize=14;" parent="1" vertex="1">
          <mxGeometry x="-860" y="-200" width="100" height="40" as="geometry" />
        </mxCell>
        <mxCell id="SAccm9rSHpC1ZqSbtUUq-1" value="Valor de Aquisição" style="ellipse;whiteSpace=wrap;html=1;align=center;shadow=1;strokeWidth=3;fontSize=14;gradientColor=none;" parent="1" vertex="1">
          <mxGeometry x="-30" y="-500" width="100" height="40" as="geometry" />
        </mxCell>
        <mxCell id="SAccm9rSHpC1ZqSbtUUq-2" value="Valor Presente" style="ellipse;whiteSpace=wrap;html=1;align=center;shadow=1;strokeWidth=3;fontSize=14;gradientColor=none;" parent="1" vertex="1">
          <mxGeometry x="70" y="-500" width="100" height="40" as="geometry" />
        </mxCell>
        <mxCell id="SAccm9rSHpC1ZqSbtUUq-3" value="Status" style="ellipse;whiteSpace=wrap;html=1;align=center;shadow=1;strokeWidth=3;fontSize=14;gradientColor=none;" parent="1" vertex="1">
          <mxGeometry x="170" y="-500" width="100" height="40" as="geometry" />
        </mxCell>
        <mxCell id="SAccm9rSHpC1ZqSbtUUq-4" value="Condição de Uso" style="ellipse;whiteSpace=wrap;html=1;align=center;shadow=1;strokeWidth=3;fontSize=14;gradientColor=none;" parent="1" vertex="1">
          <mxGeometry x="270" y="-500" width="100" height="40" as="geometry" />
        </mxCell>
        <mxCell id="SAccm9rSHpC1ZqSbtUUq-5" value="Histórico de localização" style="ellipse;whiteSpace=wrap;html=1;align=center;shadow=1;strokeWidth=3;fontSize=14;gradientColor=none;" parent="1" vertex="1">
          <mxGeometry x="370" y="-500" width="100" height="40" as="geometry" />
        </mxCell>
        <mxCell id="SAccm9rSHpC1ZqSbtUUq-6" value="Histórico de Responsáveis" style="ellipse;whiteSpace=wrap;html=1;align=center;shadow=1;strokeWidth=3;fontSize=14;gradientColor=none;" parent="1" vertex="1">
          <mxGeometry x="470" y="-500" width="100" height="40" as="geometry" />
        </mxCell>
        <mxCell id="SAccm9rSHpC1ZqSbtUUq-7" value="Descrição" style="ellipse;whiteSpace=wrap;html=1;align=center;shadow=1;strokeWidth=3;fontSize=14;gradientColor=none;" parent="1" vertex="1">
          <mxGeometry x="-230" y="-500" width="100" height="40" as="geometry" />
        </mxCell>
        <mxCell id="SAccm9rSHpC1ZqSbtUUq-8" value="Número" style="ellipse;whiteSpace=wrap;html=1;align=center;shadow=1;strokeWidth=3;fontSize=14;gradientColor=none;" parent="1" vertex="1">
          <mxGeometry x="-330" y="-500" width="100" height="40" as="geometry" />
        </mxCell>
        <mxCell id="SAccm9rSHpC1ZqSbtUUq-9" value="Data de Aquisição" style="ellipse;whiteSpace=wrap;html=1;align=center;shadow=1;strokeWidth=3;fontSize=14;gradientColor=none;" parent="1" vertex="1">
          <mxGeometry x="-130" y="-500" width="100" height="40" as="geometry" />
        </mxCell>
        <mxCell id="SAccm9rSHpC1ZqSbtUUq-21" style="edgeStyle=orthogonalEdgeStyle;rounded=1;orthogonalLoop=1;jettySize=auto;html=1;entryX=0.5;entryY=0;entryDx=0;entryDy=0;exitX=1;exitY=0.5;exitDx=0;exitDy=0;curved=0;strokeWidth=3;endArrow=none;endFill=0;shadow=1;" parent="1" source="SAccm9rSHpC1ZqSbtUUq-20" target="7mthSx3CE8CJNTc02Vdj-48" edge="1">
          <mxGeometry relative="1" as="geometry" />
        </mxCell>
        <mxCell id="SAccm9rSHpC1ZqSbtUUq-20" value="Localização" style="ellipse;whiteSpace=wrap;html=1;align=center;shadow=1;strokeWidth=3;fontSize=14;" parent="1" vertex="1">
          <mxGeometry x="-410" y="-200" width="100" height="40" as="geometry" />
        </mxCell>
        <mxCell id="joE96Z92P-JBZioCppuL-1" value="id/&lt;div&gt;tipo&lt;/div&gt;" style="ellipse;whiteSpace=wrap;html=1;align=center;strokeWidth=3;shadow=1;" parent="1" vertex="1">
          <mxGeometry x="-30" y="680" width="100" height="40" as="geometry" />
        </mxCell>
        <mxCell id="joE96Z92P-JBZioCppuL-5" value="Observações" style="ellipse;whiteSpace=wrap;html=1;align=center;strokeWidth=3;shadow=1;" parent="1" vertex="1">
          <mxGeometry x="570" y="-500" width="100" height="40" as="geometry" />
        </mxCell>
        <mxCell id="joE96Z92P-JBZioCppuL-14" style="edgeStyle=orthogonalEdgeStyle;rounded=1;orthogonalLoop=1;jettySize=auto;html=1;entryX=0.5;entryY=1;entryDx=0;entryDy=0;endArrow=none;endFill=0;strokeWidth=3;shadow=1;curved=0;" parent="1" source="joE96Z92P-JBZioCppuL-9" target="joE96Z92P-JBZioCppuL-13" edge="1">
          <mxGeometry relative="1" as="geometry" />
        </mxCell>
        <mxCell id="KZwFMcEnj0AJ6YZWbM6m-7" style="edgeStyle=orthogonalEdgeStyle;rounded=1;orthogonalLoop=1;jettySize=auto;html=1;entryX=0.5;entryY=1;entryDx=0;entryDy=0;strokeWidth=3;endArrow=none;endFill=0;shadow=1;curved=0;" edge="1" parent="1" source="joE96Z92P-JBZioCppuL-9" target="KZwFMcEnj0AJ6YZWbM6m-6">
          <mxGeometry relative="1" as="geometry" />
        </mxCell>
        <mxCell id="KZwFMcEnj0AJ6YZWbM6m-10" style="edgeStyle=orthogonalEdgeStyle;rounded=1;orthogonalLoop=1;jettySize=auto;html=1;exitX=0.5;exitY=1;exitDx=0;exitDy=0;entryX=0;entryY=0.5;entryDx=0;entryDy=0;strokeWidth=3;endArrow=none;endFill=0;shadow=1;curved=0;" edge="1" parent="1" source="joE96Z92P-JBZioCppuL-9" target="KZwFMcEnj0AJ6YZWbM6m-9">
          <mxGeometry relative="1" as="geometry" />
        </mxCell>
        <mxCell id="joE96Z92P-JBZioCppuL-9" value="Patrimônio" style="rounded=1;arcSize=10;whiteSpace=wrap;html=1;align=center;strokeWidth=3;shadow=1;" parent="1" vertex="1">
          <mxGeometry x="-1090" y="220" width="100" height="40" as="geometry" />
        </mxCell>
        <mxCell id="joE96Z92P-JBZioCppuL-15" style="edgeStyle=orthogonalEdgeStyle;rounded=1;orthogonalLoop=1;jettySize=auto;html=1;entryX=0;entryY=0.5;entryDx=0;entryDy=0;endArrow=none;endFill=0;strokeWidth=3;shadow=1;curved=0;" parent="1" source="joE96Z92P-JBZioCppuL-13" target="7mthSx3CE8CJNTc02Vdj-5" edge="1">
          <mxGeometry relative="1" as="geometry">
            <mxPoint x="-960" y="-320" as="targetPoint" />
            <Array as="points">
              <mxPoint x="-960" y="-320" />
            </Array>
          </mxGeometry>
        </mxCell>
        <mxCell id="joE96Z92P-JBZioCppuL-13" value="Registra" style="shape=rhombus;perimeter=rhombusPerimeter;whiteSpace=wrap;html=1;align=center;strokeWidth=3;shadow=1;" parent="1" vertex="1">
          <mxGeometry x="-1100" y="-350" width="120" height="60" as="geometry" />
        </mxCell>
        <mxCell id="KZwFMcEnj0AJ6YZWbM6m-3" value="" style="edgeStyle=orthogonalEdgeStyle;rounded=1;orthogonalLoop=1;jettySize=auto;html=1;entryX=1;entryY=0.5;entryDx=0;entryDy=0;endArrow=none;endFill=0;strokeWidth=3;shadow=1;curved=0;" edge="1" parent="1" source="7mthSx3CE8CJNTc02Vdj-3" target="KZwFMcEnj0AJ6YZWbM6m-1">
          <mxGeometry relative="1" as="geometry">
            <mxPoint x="-740" y="300" as="sourcePoint" />
            <mxPoint x="-910" y="240" as="targetPoint" />
          </mxGeometry>
        </mxCell>
        <mxCell id="KZwFMcEnj0AJ6YZWbM6m-1" value="Deriva" style="rhombus;whiteSpace=wrap;html=1;strokeWidth=3;shadow=1;" vertex="1" parent="1">
          <mxGeometry x="-910" y="200" width="80" height="80" as="geometry" />
        </mxCell>
        <mxCell id="KZwFMcEnj0AJ6YZWbM6m-5" style="edgeStyle=orthogonalEdgeStyle;rounded=1;orthogonalLoop=1;jettySize=auto;html=1;entryX=0;entryY=0.5;entryDx=0;entryDy=0;endArrow=none;endFill=0;strokeWidth=3;shadow=1;curved=0;" edge="1" parent="1" source="KZwFMcEnj0AJ6YZWbM6m-6" target="7mthSx3CE8CJNTc02Vdj-5">
          <mxGeometry relative="1" as="geometry">
            <mxPoint x="-60" y="-320" as="targetPoint" />
            <Array as="points">
              <mxPoint x="-1170" y="-390" />
              <mxPoint x="-520" y="-390" />
              <mxPoint x="-520" y="-320" />
            </Array>
          </mxGeometry>
        </mxCell>
        <mxCell id="KZwFMcEnj0AJ6YZWbM6m-6" value="Confere" style="shape=rhombus;perimeter=rhombusPerimeter;whiteSpace=wrap;html=1;align=center;strokeWidth=3;shadow=1;" vertex="1" parent="1">
          <mxGeometry x="-1230" y="-350" width="120" height="60" as="geometry" />
        </mxCell>
        <mxCell id="KZwFMcEnj0AJ6YZWbM6m-11" style="edgeStyle=orthogonalEdgeStyle;rounded=1;orthogonalLoop=1;jettySize=auto;html=1;entryX=0;entryY=0.5;entryDx=0;entryDy=0;strokeWidth=3;endArrow=none;endFill=0;shadow=1;curved=0;" edge="1" parent="1" source="KZwFMcEnj0AJ6YZWbM6m-9" target="7mthSx3CE8CJNTc02Vdj-104">
          <mxGeometry relative="1" as="geometry" />
        </mxCell>
        <mxCell id="KZwFMcEnj0AJ6YZWbM6m-9" value="Requisita" style="shape=rhombus;perimeter=rhombusPerimeter;whiteSpace=wrap;html=1;align=center;strokeWidth=3;shadow=1;" vertex="1" parent="1">
          <mxGeometry x="-950" y="550" width="120" height="60" as="geometry" />
        </mxCell>
      </root>
    </mxGraphModel>
  </diagram>
</mxfile>
